# xmcd
#
# Track frame offsets:
#	150
#	23400
#	38430
#	51514
#	69670
#	86425
#	101834
#	118486
#	133877
#	146765
#	164491
#	173401
#
# Disc length: 2430 seconds
#
# Revision: 1
# Processed by: cddbd v1.5.2PL0 Copyright (c) Steve Scherf et al.
# Submitted via: audiograbber 1.83.01
#
DISCID=a7097c0c
DTITLE=Infected Brain - II
DYEAR=2008
DGENRE=Death Metal
TTITLE0=Krank
TTITLE1=Die Bestie
TTITLE2=Rotten Flesh for Hunger
TTITLE3=Seeds of Hate
TTITLE4=Torture Chamber
TTITLE5=Todesengel
TTITLE6=Bloodbath
TTITLE7=Reborn
TTITLE8=Zeit zu sterben
TTITLE9=Undead
TTITLE10=Prophezeiung
TTITLE11=Extrem pervers
EXTD=
EXTT0=
EXTT1=
EXTT2=
EXTT3=
EXTT4=
EXTT5=
EXTT6=
EXTT7=
EXTT8=
EXTT9=
EXTT10=
EXTT11=
PLAYORDER=
